<?xml version="1.0" encoding="utf-8"?>
<!-- Generator: Adobe Illustrator 18.0.0, SVG Export Plug-In . SVG Version: 6.00 Build 0)  -->
<!DOCTYPE svg PUBLIC "-//W3C//DTD SVG 1.1//EN" "http://www.w3.org/Graphics/SVG/1.1/DTD/svg11.dtd">
<svg version="1.1" id="Слой_2" xmlns="http://www.w3.org/2000/svg" xmlns:xlink="http://www.w3.org/1999/xlink" x="0px" y="0px"
	 viewBox="0 422 1590 345.5" enable-background="new 0 422 1590 345.5" xml:space="preserve">
<polygon fill="##343A40"    points="1581.9,709.8 1581.9,702 1483.5,702 
	1483.5,511.8 1463.2,511.8 1463.2,488 1441.7,488 1441.7,445.8 1452.1,452.1 1452.1,443.9 1441.7,437.6 1441.7,436.8 1440.3,436.8
	1440.3,488 1412.3,488 1412.3,511.8 1392.6,511.8 1392.6,686.1 1290.8,686.1 1290.8,666.4 1288.8,666.4 1256.8,655.1 1250.1,657.1
	1250.1,629.8 1244,629.8 1244,606.6 1241.1,606.6 1236.4,573.8 1233.3,606.6 1228.4,606.6 1228.4,629.8 1224.4,629.8 1224.4,658.4
	1217.4,658.3 1203.4,662.9 1203.4,616.4 1207.5,616.4 1207.5,604 1179,604 1179,600 1181.6,600 1181.6,587.5 1168.1,587.5
	1168.1,574.3 1147.1,574.3 1147.1,587.5 1133.5,587.5 1133.5,600 1139,600 1139,604 1113.8,604 1113.8,616.4 1118.6,616.4
	1118.6,677.6 1076.6,677.6 1076.6,666.4 1058.1,666.4 1058.1,570.1 967.3,570.1 967.3,545.4 918.1,545.4 894.5,533.9 855.2,533.9
	829.6,549.8 829.6,555.2 827.1,555.2 827.1,686.1 802.2,686.1 802.2,690.9 773.9,690.9 773.9,604 759.8,604 759.8,594.2
	722.4,594.2 722.4,555.2 722.4,532.2 715,532.2 715,523.3 713.1,523.3 674.7,506.9 630.8,523.3 630.8,532.2 624.7,532.2
	624.7,555.2 621.3,555.2 621.3,650.9 616.7,650.9 616.7,568.7 613.2,568.7 613.2,549.8 608.7,549.8 608.7,543.4 607.4,543.4
	607.4,549.8 596.5,549.8 596.5,541.6 593.3,541.6 593.3,549.8 581.3,549.8 581.3,568.7 564.3,568.7 564.3,559.2 547.4,559.2
	547.4,534.8 526.6,534.8 522.3,481 522.3,534.8 517.9,534.8 517.9,568.7 512.1,568.7 512.1,677.6 505.4,677.6 505.4,690.9
	499.3,690.9 499.3,563.3 487.7,563.3 487.7,546.3 382.5,546.3 382.5,563.3 372.5,563.3 372.5,605.4 369,605.4 369,659.4
	364.2,659.4 364.2,648.8 352.1,648.8 352.1,659.4 338.5,659.4 338.5,583.7 334.4,583.7 334.4,529 334.7,529 334.4,526.3
	334.4,524.6 334.3,524.6 327.9,464.7 324.5,524.6 262.4,524.6 256,464.7 252.5,524.6 252.3,524.6 252.3,583.7 249,583.7 249,653.9
	240.1,653.9 240.1,669.2 216.4,669.2 216.4,662.4 207.6,662.4 207.6,658.3 196.1,658.3 196.1,669.2 187.9,669.2 187.9,679.4
	181.8,679.4 181.8,636.6 177.7,636.6 177.7,610.9 171.6,610.9 171.6,589.1 113.3,589.1 113.3,610.9 107.2,610.9 107.2,636.6
	102.4,636.6 102.4,679.4 50.9,679.4 50.9,690.9 8.9,690.9 8.9,709.8 0,709.8 0,767.5 8.9,767.5 107.2,767.5 1590,767.5 1590,709.8
	"/>
</svg>
